<svg width="14" height="15" viewBox="0 0 14 15" fill="none" xmlns="http://www.w3.org/2000/svg">
<g clip-path="url(#clip0_172_2394)">
<path d="M9.48899 0.699979C9.21764 0.865693 9.20622 1.31712 9.47471 1.49141C9.54612 1.53998 9.66894 1.54284 11.0685 1.55712C12.531 1.57141 12.5852 1.57426 12.6823 1.63141C12.988 1.81141 12.988 2.21712 12.6823 2.39712C12.5938 2.45141 12.5224 2.45998 11.9825 2.47141C11.317 2.48855 11.2799 2.49712 11.1685 2.67998C11.1142 2.76855 11.1114 2.83426 11.1114 4.24855V5.72284L11.2485 5.77426C11.3542 5.81426 11.7255 5.95712 11.9911 6.06284C12.0168 6.07426 12.0254 5.79712 12.0254 4.73141V3.38569H12.3796C12.6481 3.38569 12.7766 3.37141 12.908 3.33141C13.3279 3.19998 13.6849 2.83998 13.8077 2.41712C13.8677 2.21426 13.8677 1.81426 13.8077 1.61141C13.6849 1.18855 13.3279 0.828551 12.908 0.697122C12.7452 0.645694 12.6252 0.642836 11.1599 0.642836C9.63752 0.642836 9.58039 0.645694 9.48899 0.699979Z" fill="#1CC3E6"/>
<path d="M2.17636 2.52851C2.03925 2.61422 1.9707 2.74279 1.9707 2.92851C1.9707 3.11422 2.03925 3.24279 2.17636 3.32851C2.26205 3.37994 2.32203 3.38565 2.8076 3.38565H3.34173V3.85708V4.32851L3.66449 4.32565C3.83872 4.32279 4.04438 4.33136 4.1215 4.34279L4.25574 4.36279V3.87422V3.38565H4.79273C5.27544 3.38565 5.33543 3.37994 5.42111 3.32851C5.55822 3.24279 5.62677 3.11422 5.62677 2.92851C5.62677 2.74279 5.55822 2.61422 5.42111 2.52851C5.32971 2.47422 5.27259 2.47137 3.79874 2.47137C2.32488 2.47137 2.26776 2.47422 2.17636 2.52851Z" fill="#1CC3E6"/>
<path d="M3.13027 5.25996C2.83893 5.31424 2.45047 5.44282 2.1477 5.59139C1.49075 5.91424 0.870935 6.52853 0.528179 7.20282C0.262543 7.71996 0.142578 8.24282 0.142578 8.87139C0.142578 9.89139 0.485334 10.7342 1.1937 11.4514C1.73925 12 2.41334 12.3542 3.17026 12.4885C3.70153 12.58 4.66696 12.5057 6.19794 12.2571C9.25704 11.7542 11.702 11.0114 12.9102 10.2114C13.2701 9.97424 13.6072 9.63139 13.7386 9.37139C13.8328 9.18282 13.8385 9.15996 13.8385 8.87139C13.8385 8.58567 13.8328 8.55996 13.7414 8.37139C13.6129 8.11424 13.2816 7.7771 12.9102 7.53139C11.7277 6.74853 9.33987 6.01139 6.3836 5.5171C4.69552 5.23424 3.7101 5.15424 3.13027 5.25996ZM4.3699 7.1571C4.89546 7.33424 5.3439 7.78282 5.51528 8.30282C5.57526 8.48567 5.58383 8.56567 5.58383 8.89996C5.58098 9.26567 5.57812 9.2971 5.48957 9.51424C5.27249 10.0571 4.79549 10.4828 4.23851 10.6285C4.01858 10.6857 3.59299 10.6857 3.36449 10.6285C2.71611 10.46 2.21054 9.95139 2.04202 9.29996C1.97061 9.01996 1.99346 8.55424 2.09343 8.27424C2.42476 7.34567 3.44446 6.84567 4.3699 7.1571Z" fill="#1CC3E6"/>
<path d="M3.43234 8.01767C2.84983 8.24331 2.68992 9.0745 3.14108 9.52865C3.59796 9.9828 4.43175 9.81999 4.65162 9.22874C4.83437 8.74031 4.60593 8.18619 4.15477 8.01767C3.94347 7.93769 3.64079 7.93769 3.43234 8.01767Z" fill="#1CC3E6"/>
<path d="M10.897 12.08C10.6628 12.16 10.4629 12.2285 10.4572 12.2314C10.4515 12.2371 10.5514 12.5114 10.6771 12.84L10.9056 13.4428H10.4743C10.0916 13.4428 10.0287 13.4485 9.94589 13.5C9.80879 13.5857 9.74023 13.7143 9.74023 13.9C9.74023 14.0857 9.80879 14.2143 9.94589 14.3C10.0373 14.3543 10.0944 14.3571 11.7968 14.3571C13.4991 14.3571 13.5563 14.3543 13.6477 14.3C13.919 14.1343 13.9304 13.6828 13.6619 13.5085C13.5934 13.4628 13.4906 13.4543 12.7422 13.4428L11.9025 13.4285L11.6282 12.68C11.4769 12.2657 11.3483 11.9314 11.3398 11.9314C11.3312 11.9343 11.1341 12 10.897 12.08Z" fill="#1CC3E6"/>
<path d="M2.13628 13.2915L2.09629 13.4286L1.25368 13.4429C0.505328 13.4543 0.402501 13.4629 0.33395 13.5086C0.205417 13.5915 0.142578 13.7229 0.142578 13.9C0.142578 14.0857 0.211129 14.2143 0.348232 14.3C0.439633 14.3543 0.496759 14.3572 2.19911 14.3572C3.90147 14.3572 3.9586 14.3543 4.05 14.3C4.1871 14.2143 4.25565 14.0857 4.25565 13.9C4.25565 13.7143 4.1871 13.5857 4.05 13.5C3.96716 13.4515 3.90433 13.4429 3.53872 13.4429C3.21025 13.4429 3.11599 13.4343 3.10456 13.4029C3.09599 13.3829 3.02459 13.3572 2.94461 13.3457C2.86463 13.3343 2.67326 13.2886 2.51616 13.2429C2.35907 13.1943 2.21625 13.1572 2.20197 13.1572C2.18769 13.1572 2.15627 13.2172 2.13628 13.2915Z" fill="#1CC3E6"/>
</g>
<defs>
<clipPath id="clip0_172_2394">
<rect width="13.7143" height="13.7143" fill="white" transform="matrix(1 0 0 -1 0.142578 14.3571)"/>
</clipPath>
</defs>
</svg>
