<svg width="24" height="24" viewBox="0 0 24 24" fill="none" xmlns="http://www.w3.org/2000/svg">
<circle cx="12" cy="12" r="12" fill="#EAF9F0"/>
<path d="M15 6H9C7.344 6 6 7.338 6 8.988V12.576V13.176C6 14.826 7.344 16.164 9 16.164H9.9C10.062 16.164 10.278 16.272 10.38 16.404L11.28 17.598C11.676 18.126 12.324 18.126 12.72 17.598L13.62 16.404C13.734 16.254 13.914 16.164 14.1 16.164H15C16.656 16.164 18 14.826 18 13.176V8.988C18 7.338 16.656 6 15 6ZM12.6 13.05H9C8.754 13.05 8.55 12.846 8.55 12.6C8.55 12.354 8.754 12.15 9 12.15H12.6C12.846 12.15 13.05 12.354 13.05 12.6C13.05 12.846 12.846 13.05 12.6 13.05ZM15 10.05H9C8.754 10.05 8.55 9.846 8.55 9.6C8.55 9.354 8.754 9.15 9 9.15H15C15.246 9.15 15.45 9.354 15.45 9.6C15.45 9.846 15.246 10.05 15 10.05Z" fill="#43CC7B"/>
</svg>
