<svg width="135" height="26" viewBox="0 0 135 26" fill="none" xmlns="http://www.w3.org/2000/svg">
<g clip-path="url(#clip0_424_296)">
<path d="M29.3753 2.20451C28.7803 2.37232 28.1752 2.85033 27.8904 3.38427C27.1429 4.77761 27.9006 6.49641 29.4312 6.88288C30.2601 7.09138 31.1246 6.85237 31.7552 6.23707C31.8823 6.11502 32.0654 5.84551 32.1823 5.6065C32.3755 5.22003 32.3908 5.14375 32.4162 4.68608C32.4518 3.90805 32.2738 3.41478 31.7501 2.85541C31.4602 2.5503 31.0992 2.33163 30.7025 2.21468C30.372 2.11806 29.7058 2.11297 29.3753 2.20451Z" fill="black" fill-opacity="0.8"/>
<path d="M24.9776 4.36552C24.6826 4.44688 24.2961 4.62487 22.2315 5.6419C21.0874 6.20636 20.0042 6.77082 19.8262 6.89795C19.0991 7.41664 18.6465 8.29129 18.6465 9.1812C18.6465 9.64395 18.7584 10.0762 18.9669 10.4322C19.1245 10.7017 19.6279 11.1899 20.0703 11.5001C20.3043 11.6628 22.7807 13.1883 22.9028 13.2392C22.9079 13.2443 22.9689 14.2613 23.0452 15.5072C23.1215 16.7531 23.2028 17.8871 23.2282 18.0345C23.4062 18.9753 24.6216 19.3363 25.303 18.6549C25.6793 18.2735 25.6691 18.3854 25.6539 15.0749L25.6386 12.1255L25.5166 11.856C25.3793 11.5509 25.2369 11.4187 24.3266 10.7271C23.9758 10.4627 23.6859 10.2288 23.6859 10.2135C23.6808 10.1982 24.3216 9.85753 25.1047 9.46089L26.5285 8.73879L27.7897 9.78634C28.4813 10.3661 29.1118 10.8695 29.1932 10.9153C29.3712 11.0068 30.0526 11.0678 31.3849 11.1085C32.3307 11.139 32.3562 11.139 32.5799 11.017C33.2003 10.6915 33.3732 9.81685 32.9054 9.37444C32.6664 9.1456 32.4121 9.0795 31.1561 8.89643C30.556 8.80998 30.0119 8.72862 29.9509 8.71845C29.8746 8.69811 29.5135 8.2557 28.8626 7.38104C28.0897 6.34366 27.749 5.93685 27.2201 5.41307C26.676 4.87404 26.4828 4.7164 26.1675 4.55367C25.7556 4.35026 25.303 4.27399 24.9776 4.36552Z" fill="black" fill-opacity="0.8"/>
<path d="M16.1548 11.6932C13.958 12.0034 12.2545 13.5391 11.6443 15.7613C11.5782 16.0207 11.5578 16.2902 11.5527 17.0072C11.5527 17.7954 11.568 17.9785 11.6646 18.3344C12.2392 20.4295 13.8258 21.9042 15.9311 22.2958C16.5413 22.4128 17.5838 22.3823 18.1737 22.2246C20.7773 21.5432 22.4757 19.1328 22.2062 16.5038C22.0791 15.2426 21.6062 14.2154 20.7366 13.3052C19.984 12.517 19.0483 11.9932 17.9855 11.7644C17.5584 11.6728 16.5769 11.6372 16.1548 11.6932ZM18.072 13.5086C18.6517 13.7171 19.0127 13.9459 19.4653 14.3883C20.1671 15.0799 20.5179 15.8579 20.5637 16.8343C20.5993 17.5208 20.4976 18.009 20.1976 18.6345C19.7196 19.6108 18.8093 20.3583 17.7719 20.6228C17.3397 20.7346 16.4142 20.7499 16.0531 20.6482C14.0445 20.1092 12.8393 18.2327 13.2359 16.28C13.3275 15.8071 13.6733 15.0799 13.9885 14.6833C14.4462 14.1036 15.2039 13.6205 15.9514 13.4221C16.2667 13.3357 16.4498 13.3255 16.9939 13.3408C17.5685 13.356 17.7109 13.3764 18.072 13.5086Z" fill="#FF7B3E"/>
<path d="M31.691 11.673C30.557 11.8357 29.8603 12.1052 29.0467 12.69C28.3958 13.1527 27.6737 14.0325 27.3432 14.7648C25.9498 17.8311 27.6432 21.3704 30.9181 22.2247C31.5079 22.3824 32.5504 22.4129 33.1606 22.2959C35.2659 21.9044 36.8525 20.4297 37.4271 18.3346C37.5237 17.9786 37.539 17.7955 37.539 17.0073C37.5339 16.0615 37.4983 15.8276 37.2593 15.1665C36.5067 13.1273 34.6048 11.7441 32.4284 11.673C32.108 11.6577 31.7775 11.6628 31.691 11.673ZM33.12 13.4223C33.8776 13.6104 34.6353 14.0935 35.1032 14.6834C35.4185 15.08 35.7643 15.8072 35.8558 16.2801C36.2524 18.2329 35.0472 20.1093 33.0386 20.6483C32.6775 20.75 31.752 20.7348 31.3198 20.6229C30.2824 20.3585 29.3722 19.6109 28.8942 18.6346C28.5941 18.0091 28.4924 17.5209 28.528 16.8344C28.5738 15.8581 28.9247 15.08 29.6264 14.3884C30.1705 13.8545 30.8011 13.5087 31.4876 13.3714C31.8944 13.29 32.6979 13.3155 33.12 13.4223Z" fill="#FF7B3E"/>
<path d="M7.87838 8.48436C7.87838 8.10595 8.18514 7.79919 8.56355 7.79919H13.3597C13.7381 7.79919 14.0449 8.10595 14.0449 8.48436C14.0449 8.86276 13.7381 9.16952 13.3597 9.16952H8.56355C8.18514 9.16952 7.87838 8.86276 7.87838 8.48436Z" fill="#FF7B3E" fill-opacity="0.96"/>
<path d="M4.45257 12.2528C4.45257 11.8744 4.75933 11.5676 5.13773 11.5676H9.93387C10.3123 11.5676 10.619 11.8744 10.619 12.2528C10.619 12.6312 10.3123 12.9379 9.93387 12.9379H5.13773C4.75933 12.9379 4.45257 12.6312 4.45257 12.2528Z" fill="#FF7B3E" fill-opacity="0.96"/>
<path d="M1.71191 16.0212C1.71191 15.6427 2.01867 15.336 2.39708 15.336H7.19322C7.57163 15.336 7.87838 15.6427 7.87838 16.0212C7.87838 16.3996 7.57163 16.7063 7.19322 16.7063H2.39708C2.01867 16.7063 1.71191 16.3996 1.71191 16.0212Z" fill="#FF7B3E" fill-opacity="0.96"/>
<path d="M44.8779 5.21414H51.3022V7.35555H47.2335V11.3172H50.467V13.4586H47.2335V18.0626H51.3022V20.204H44.8779V5.21414Z" fill="black" fill-opacity="0.8"/>
<path d="M54.4989 7.35555H52.0363V5.21414H59.317V7.35555H56.8544V20.204H54.4989V7.35555Z" fill="black" fill-opacity="0.8"/>
<path d="M61.2948 5.21414H64.4855L66.9267 20.204H64.5712L64.1429 17.2274V17.2703H61.4662L61.0379 20.204H58.8536L61.2948 5.21414ZM63.8645 15.2359L62.8152 7.82666H62.7724L61.7445 15.2359H63.8645Z" fill="black" fill-opacity="0.8"/>
<path d="M68.0696 5.21414H70.4251V18.0626H74.3011V20.204H68.0696V5.21414Z" fill="black" fill-opacity="0.8"/>
<path d="M78.7518 20.4181C77.5955 20.4181 76.7104 20.0898 76.0965 19.4331C75.4826 18.7764 75.1757 17.8485 75.1757 16.6493V8.76888C75.1757 7.56969 75.4826 6.64175 76.0965 5.98505C76.7104 5.32835 77.5955 5 78.7518 5C79.9082 5 80.7933 5.32835 81.4072 5.98505C82.0211 6.64175 82.328 7.56969 82.328 8.76888V16.6493C82.328 17.8485 82.0211 18.7764 81.4072 19.4331C80.7933 20.0898 79.9082 20.4181 78.7518 20.4181ZM78.7518 18.2767C79.5656 18.2767 79.9724 17.7842 79.9724 16.7992V8.61898C79.9724 7.63393 79.5656 7.14141 78.7518 7.14141C77.9381 7.14141 77.5312 7.63393 77.5312 8.61898V16.7992C77.5312 17.7842 77.9381 18.2767 78.7518 18.2767Z" fill="black" fill-opacity="0.8"/>
<path d="M83.921 5.21414H86.8761L89.1675 14.1866H89.2103V5.21414H91.3089V20.204H88.8891L86.0624 9.2614H86.0196V20.204H83.921V5.21414Z" fill="black" fill-opacity="0.8"/>
<path d="M98.3308 7.35555H95.8682V5.21414H103.149V7.35555H100.686V20.204H98.3308V7.35555Z" fill="black" fill-opacity="0.8"/>
<path d="M104.289 5.21414H110.714V7.35555H106.645V11.3172H109.879V13.4586H106.645V18.0626H110.714V20.204H104.289V5.21414Z" fill="black" fill-opacity="0.8"/>
<path d="M113.889 5.21414H117.08L119.521 20.204H117.165L116.737 17.2274V17.2703H114.06L113.632 20.204H111.448L113.889 5.21414ZM116.459 15.2359L115.409 7.82666H115.367L114.339 15.2359H116.459Z" fill="black" fill-opacity="0.8"/>
<path d="M120.664 5.21414H124.026L125.525 15.9426H125.568L127.067 5.21414H130.429V20.204H128.201V8.85454H128.159L126.446 20.204H124.475L122.762 8.85454H122.719V20.204H120.664V5.21414Z" fill="black" fill-opacity="0.8"/>
</g>
<defs>
<clipPath id="clip0_424_296">
<rect width="135" height="26" fill="white"/>
</clipPath>
</defs>
</svg>
