<svg width="135" height="26" viewBox="0 0 135 26" fill="none" xmlns="http://www.w3.org/2000/svg">
<g clip-path="url(#clip0_25_2583)">
<path d="M41.8252 5.27614H44.2589L45.8375 17.1815H45.8814L47.46 5.27614H49.6744L47.3504 20.6238H44.1493L41.8252 5.27614Z" fill="black" fill-opacity="0.8"/>
<path d="M50.8329 5.27614H57.4104V7.46866H53.2446V11.5248H56.5553V13.7173H53.2446V18.4313H57.4104V20.6238H50.8329V5.27614Z" fill="black" fill-opacity="0.8"/>
<path d="M58.7979 5.27614H61.2097V18.4313H65.1781V20.6238H58.7979V5.27614Z" fill="black" fill-opacity="0.8"/>
<path d="M69.7351 20.843C68.5512 20.843 67.6449 20.5069 67.0164 19.8345C66.3879 19.1621 66.0736 18.212 66.0736 16.9842V8.91572C66.0736 7.68791 66.3879 6.73782 67.0164 6.06545C67.6449 5.39307 68.5512 5.05688 69.7351 5.05688C70.9191 5.05688 71.8254 5.39307 72.4539 6.06545C73.0824 6.73782 73.3967 7.68791 73.3967 8.91572V16.9842C73.3967 18.212 73.0824 19.1621 72.4539 19.8345C71.8254 20.5069 70.9191 20.843 69.7351 20.843ZM69.7351 18.6505C70.5683 18.6505 70.9849 18.1462 70.9849 17.1377V8.76225C70.9849 7.75369 70.5683 7.24941 69.7351 7.24941C68.902 7.24941 68.4854 7.75369 68.4854 8.76225V17.1377C68.4854 18.1462 68.902 18.6505 69.7351 18.6505Z" fill="black" fill-opacity="0.8"/>
<path d="M81.9376 20.843C80.7828 20.843 79.8985 20.5142 79.2846 19.8564C78.6853 19.1987 78.3857 18.2705 78.3857 17.0719V8.82802C78.3857 7.62944 78.6853 6.70128 79.2846 6.04352C79.8985 5.38576 80.7828 5.05688 81.9376 5.05688C83.0923 5.05688 83.9693 5.38576 84.5686 6.04352C85.1825 6.70128 85.4894 7.62944 85.4894 8.82802V10.4505H83.2092V8.67455C83.2092 7.72445 82.8073 7.24941 82.0033 7.24941C81.1994 7.24941 80.7975 7.72445 80.7975 8.67455V17.2473C80.7975 18.1828 81.1994 18.6505 82.0033 18.6505C82.8073 18.6505 83.2092 18.1828 83.2092 17.2473V14.9013H85.4894V17.0719C85.4894 18.2705 85.1825 19.1987 84.5686 19.8564C83.9693 20.5142 83.0923 20.843 81.9376 20.843Z" fill="black" fill-opacity="0.8"/>
<path d="M86.9324 5.27614H89.3442V18.4313H93.3126V20.6238H86.9324V5.27614Z" fill="black" fill-opacity="0.8"/>
<path d="M97.9772 20.843C96.8079 20.843 95.9163 20.5142 95.3024 19.8564C94.6884 19.184 94.3815 18.2266 94.3815 16.9842V5.27614H96.7933V17.1596C96.7933 17.6858 96.8956 18.0659 97.1002 18.2997C97.3195 18.5336 97.6264 18.6505 98.0211 18.6505C98.4157 18.6505 98.7154 18.5336 98.92 18.2997C99.1393 18.0659 99.2489 17.6858 99.2489 17.1596V5.27614H101.573V16.9842C101.573 18.2266 101.266 19.184 100.652 19.8564C100.038 20.5142 99.1466 20.843 97.9772 20.843Z" fill="black" fill-opacity="0.8"/>
<path d="M103.291 5.27614H106.93C108.173 5.27614 109.079 5.56847 109.649 6.15315C110.219 6.7232 110.504 7.60752 110.504 8.8061V9.42C110.504 10.2093 110.373 10.8525 110.109 11.3494C109.861 11.8464 109.474 12.2045 108.947 12.4238V12.4676C110.146 12.8769 110.745 13.9439 110.745 15.6687V16.9842C110.745 18.1682 110.431 19.0744 109.802 19.7029C109.189 20.3168 108.282 20.6238 107.084 20.6238H103.291V5.27614ZM106.645 11.5248C107.128 11.5248 107.486 11.4006 107.72 11.1521C107.968 10.9036 108.092 10.487 108.092 9.90236V9.04728C108.092 8.49184 107.99 8.08987 107.785 7.84139C107.595 7.5929 107.288 7.46866 106.864 7.46866H105.702V11.5248H106.645ZM107.084 18.4313C107.508 18.4313 107.822 18.3216 108.027 18.1024C108.231 17.8685 108.333 17.4739 108.333 16.9184V15.581C108.333 14.8794 108.209 14.397 107.961 14.1339C107.727 13.8562 107.332 13.7173 106.777 13.7173H105.702V18.4313H107.084Z" fill="black" fill-opacity="0.8"/>
<path d="M119.701 17.8393H115.096V15.6468L119.481 5.27614H122.112V15.6468H123.253V17.8393H122.112V20.6238H119.701V17.8393ZM119.701 15.6468V9.66118H119.657L117.289 15.6468H119.701Z" fill="black" fill-opacity="0.8"/>
<path d="M129.159 7.46866H124.292V5.27614H131.527V7.38096L127.756 20.6238H125.3L129.159 7.46866Z" fill="black" fill-opacity="0.8"/>
<path d="M28.5442 2.4108C27.9493 2.57862 27.3441 3.05662 27.0594 3.59057C26.3118 4.98391 27.0695 6.70271 28.6002 7.08918C29.4291 7.29768 30.2935 7.05867 30.9241 6.44336C31.0512 6.32132 31.2343 6.0518 31.3513 5.8128C31.5445 5.42632 31.5598 5.35005 31.5852 4.89238C31.6208 4.11434 31.4428 3.62108 30.919 3.06171C30.6292 2.7566 30.2681 2.53793 29.8715 2.42097C29.5409 2.32436 28.8748 2.31927 28.5442 2.4108Z" fill="black" fill-opacity="0.8"/>
<path d="M24.1465 4.57182C23.8516 4.65318 23.4651 4.83116 21.4005 5.8482C20.2563 6.41266 19.1732 6.97712 18.9952 7.10425C18.268 7.62294 17.8154 8.49759 17.8154 9.3875C17.8154 9.85025 17.9273 10.2825 18.1358 10.6385C18.2934 10.908 18.7969 11.3962 19.2393 11.7063C19.4732 11.8691 21.9497 13.3946 22.0717 13.4455C22.0768 13.4506 22.1378 14.4676 22.2141 15.7135C22.2904 16.9594 22.3718 18.0934 22.3972 18.2408C22.5752 19.1816 23.7905 19.5426 24.472 18.8612C24.8483 18.4798 24.8381 18.5917 24.8228 15.2812L24.8076 12.3318L24.6855 12.0623C24.5482 11.7572 24.4058 11.625 23.4956 10.9334C23.1447 10.669 22.8549 10.4351 22.8549 10.4198C22.8498 10.4045 23.4905 10.0638 24.2736 9.66719L25.6975 8.94509L26.9586 9.99264C27.6502 10.5724 28.2808 11.0758 28.3621 11.1216C28.5401 11.2131 29.2215 11.2741 30.5538 11.3148C31.4997 11.3453 31.5251 11.3453 31.7489 11.2233C32.3693 10.8978 32.5422 10.0231 32.0743 9.58074C31.8353 9.3519 31.5811 9.2858 30.325 9.10273C29.725 9.01628 29.1808 8.93492 29.1198 8.92475C29.0435 8.90441 28.6825 8.46199 28.0316 7.58734C27.2586 6.54996 26.9179 6.14314 26.3891 5.61937C25.845 5.08034 25.6517 4.9227 25.3364 4.75997C24.9245 4.55656 24.472 4.48029 24.1465 4.57182Z" fill="black" fill-opacity="0.8"/>
<path d="M15.3238 11.8995C13.127 12.2097 11.4234 13.7454 10.8132 15.9676C10.7471 16.227 10.7268 16.4965 10.7217 17.2135C10.7217 18.0017 10.7369 18.1848 10.8336 18.5407C11.4082 20.6358 12.9948 22.1105 15.1 22.5021C15.7103 22.6191 16.7527 22.5886 17.3426 22.4309C19.9462 21.7495 21.6447 19.3391 21.3752 16.7101C21.248 15.4489 20.7751 14.4217 19.9055 13.5115C19.1529 12.7233 18.2173 12.1995 17.1545 11.9707C16.7273 11.8791 15.7459 11.8435 15.3238 11.8995ZM17.2409 13.7149C17.8206 13.9234 18.1817 14.1522 18.6342 14.5946C19.336 15.2862 19.6869 16.0642 19.7326 17.0406C19.7682 17.7271 19.6665 18.2153 19.3665 18.8408C18.8885 19.8171 17.9783 20.5646 16.9409 20.8291C16.5086 20.9409 15.5831 20.9562 15.2221 20.8545C13.2134 20.3155 12.0082 18.439 12.4049 16.4863C12.4964 16.0134 12.8422 15.2862 13.1575 14.8896C13.6152 14.3099 14.3729 13.8268 15.1204 13.6284C15.4357 13.542 15.6187 13.5318 16.1628 13.5471C16.7375 13.5623 16.8799 13.5827 17.2409 13.7149Z" fill="#FF7B3E"/>
<path d="M30.86 11.8793C29.726 12.042 29.0293 12.3115 28.2157 12.8963C27.5648 13.359 26.8427 14.2388 26.5121 14.9711C25.1188 18.0374 26.8121 21.5767 30.087 22.431C30.6769 22.5887 31.7194 22.6192 32.3296 22.5022C34.4349 22.1107 36.0214 20.636 36.5961 18.5409C36.6927 18.1849 36.7079 18.0018 36.7079 17.2136C36.7028 16.2678 36.6673 16.0339 36.4282 15.3728C35.6756 13.3336 33.7738 11.9504 31.5973 11.8793C31.2769 11.864 30.9464 11.8691 30.86 11.8793ZM32.2889 13.6286C33.0466 13.8167 33.8043 14.2998 34.2721 14.8897C34.5874 15.2863 34.9332 16.0135 35.0247 16.4864C35.4214 18.4392 34.2162 20.3156 32.2075 20.8546C31.8465 20.9563 30.921 20.9411 30.4887 20.8292C29.4514 20.5648 28.5411 19.8172 28.0631 18.8409C27.7631 18.2154 27.6614 17.7272 27.697 17.0407C27.7427 16.0644 28.0936 15.2863 28.7954 14.5947C29.3395 14.0608 29.97 13.715 30.6566 13.5777C31.0634 13.4963 31.8668 13.5218 32.2889 13.6286Z" fill="#FF7B3E"/>
<path d="M7.04733 8.69066C7.04733 8.31225 7.35409 8.00549 7.73249 8.00549H12.5286C12.907 8.00549 13.2138 8.31225 13.2138 8.69066C13.2138 9.06906 12.907 9.37582 12.5286 9.37582H7.73249C7.35409 9.37582 7.04733 9.06906 7.04733 8.69066Z" fill="#FF7B3E" fill-opacity="0.96"/>
<path d="M3.62151 12.4591C3.62151 12.0806 3.92827 11.7739 4.30668 11.7739H9.10282C9.48122 11.7739 9.78798 12.0806 9.78798 12.4591C9.78798 12.8375 9.48122 13.1442 9.10282 13.1442H4.30668C3.92827 13.1442 3.62151 12.8375 3.62151 12.4591Z" fill="#FF7B3E" fill-opacity="0.96"/>
<path d="M0.880859 16.2275C0.880859 15.849 1.18762 15.5423 1.56602 15.5423H6.36217C6.74057 15.5423 7.04733 15.849 7.04733 16.2275C7.04733 16.6059 6.74057 16.9126 6.36217 16.9126H1.56602C1.18762 16.9126 0.880859 16.6059 0.880859 16.2275Z" fill="#FF7B3E" fill-opacity="0.96"/>
</g>
<defs>
<clipPath id="clip0_25_2583">
<rect width="135" height="26" fill="white"/>
</clipPath>
</defs>
</svg>
