<svg width="18" height="19" viewBox="0 0 18 19" fill="none" xmlns="http://www.w3.org/2000/svg">
<path d="M14.355 15.125C15.6825 13.775 16.5 11.915 16.5 9.875C16.5 5.735 13.14 2.375 9 2.375C4.86 2.375 1.5 5.735 1.5 9.875C1.5 11.915 2.31 13.76 3.63 15.1175" stroke="#6E61DA" stroke-width="1.3" stroke-miterlimit="10" stroke-linecap="round" stroke-linejoin="round"/>
<path d="M8.99985 16.6249C10.3999 16.6249 11.5349 15.49 11.5349 14.0899C11.5349 12.6899 10.3999 11.5549 8.99985 11.5549C7.59981 11.5549 6.46484 12.6899 6.46484 14.0899C6.46484 15.49 7.59981 16.6249 8.99985 16.6249Z" stroke="#6E61DA" stroke-width="1.3" stroke-miterlimit="10" stroke-linecap="round" stroke-linejoin="round"/>
<path d="M11.4375 9.5H12C12.615 9.5 13.125 8.9975 13.125 8.375C13.125 7.76 12.615 7.25 12 7.25C11.385 7.25 10.875 7.7525 10.875 8.375V8.9375C10.875 9.245 11.13 9.5 11.4375 9.5Z" stroke="#6E61DA" stroke-width="1.3" stroke-miterlimit="10" stroke-linecap="round" stroke-linejoin="round"/>
</svg>
