<svg width="16" height="11" viewBox="0 0 16 11" fill="none" xmlns="http://www.w3.org/2000/svg">
<path d="M15.5406 7.8185V9.37826C15.5406 9.65404 15.4271 9.91853 15.225 10.1135C15.023 10.3085 14.749 10.4181 14.4633 10.4181H7.18659C7.13691 10.4181 7.08818 10.4049 7.04581 10.3799C7.00343 10.3549 6.96905 10.319 6.94647 10.2763C6.92389 10.2336 6.91399 10.1857 6.91787 10.1379C6.92174 10.0901 6.93924 10.0442 6.96843 10.0054L11.1148 4.50402C11.2007 4.39383 11.2391 4.2558 11.2219 4.11889C11.2047 3.98197 11.1333 3.8568 11.0225 3.76963C10.9656 3.72696 10.9003 3.69577 10.8306 3.67791C10.7609 3.66004 10.6882 3.65587 10.6168 3.66563C10.5454 3.67538 10.4768 3.69888 10.415 3.73472C10.3532 3.77056 10.2994 3.81801 10.257 3.87426L5.409 10.3122C5.38359 10.3455 5.35029 10.3725 5.31187 10.391C5.27346 10.4094 5.23104 10.4187 5.18815 10.4181H1.53533C1.24961 10.4181 0.975587 10.3085 0.77355 10.1135C0.571512 9.91853 0.458008 9.65404 0.458008 9.37826V7.89194C0.458008 7.77561 0.458008 7.65993 0.466761 7.54554C0.470219 7.47888 0.500114 7.41605 0.550254 7.37007C0.600393 7.3241 0.666935 7.2985 0.736093 7.29858H2.61266C2.68651 7.29874 2.75959 7.28424 2.82739 7.25598C2.89518 7.22773 2.95623 7.18632 3.00675 7.13433C3.05726 7.08234 3.09617 7.02089 3.12104 6.95378C3.14591 6.88667 3.15622 6.81534 3.15133 6.74422C3.13941 6.6103 3.07532 6.48572 2.97197 6.39562C2.86863 6.30552 2.73373 6.25661 2.59448 6.25874H0.991285C0.950197 6.25871 0.909661 6.24961 0.872779 6.23213C0.835897 6.21465 0.803648 6.18926 0.778499 6.1579C0.75335 6.12654 0.735968 6.09004 0.727684 6.05119C0.7194 6.01235 0.720434 5.97219 0.730706 5.93379C1.5387 3.08463 4.07446 0.92112 7.16235 0.586422C7.20007 0.582484 7.23823 0.586284 7.27433 0.597573C7.31042 0.608863 7.34364 0.627386 7.3718 0.65193C7.39996 0.676473 7.42244 0.706484 7.43774 0.739994C7.45305 0.773504 7.46085 0.809759 7.46063 0.846381V2.61931C7.46047 2.69058 7.47549 2.76113 7.50477 2.82656C7.53404 2.892 7.57694 2.95092 7.6308 2.99968C7.68467 3.04844 7.74834 3.08599 7.81787 3.10999C7.8874 3.134 7.9613 3.14395 8.03498 3.13923C8.17373 3.12773 8.3028 3.06586 8.39615 2.96611C8.4895 2.86637 8.54017 2.73616 8.53796 2.60176V0.843132C8.53774 0.806509 8.54554 0.770255 8.56085 0.736745C8.57616 0.703234 8.59863 0.673224 8.62679 0.64868C8.65495 0.624136 8.68817 0.605613 8.72426 0.594324C8.76036 0.583035 8.79852 0.579234 8.83624 0.583172C10.3438 0.74668 11.7654 1.34454 12.9159 2.29889C14.0664 3.25324 14.8926 4.51985 15.2867 5.93379C15.297 5.97225 15.298 6.01246 15.2897 6.05135C15.2814 6.09025 15.264 6.12678 15.2387 6.15816C15.2135 6.18953 15.1812 6.21491 15.1442 6.23235C15.1072 6.24978 15.0666 6.25881 15.0255 6.25874H13.4041C13.2651 6.25694 13.1305 6.306 13.0275 6.39607C12.9244 6.48613 12.8605 6.61052 12.8486 6.74422C12.8437 6.81534 12.854 6.88667 12.8789 6.95378C12.9038 7.02089 12.9427 7.08234 12.9932 7.13433C13.0437 7.18632 13.1048 7.22773 13.1726 7.25598C13.2403 7.28424 13.3134 7.29874 13.3873 7.29858H15.2672C15.337 7.29854 15.4042 7.32468 15.4544 7.37148C15.5046 7.41828 15.5341 7.48209 15.5365 7.54944C15.5406 7.63848 15.5406 7.72817 15.5406 7.8185Z" fill="#6E61DA"/>
</svg>
